<?xml version="1.0" encoding="utf-8"?>
<!-- Generator: Adobe Illustrator 23.0.3, SVG Export Plug-In . SVG Version: 6.00 Build 0)  -->
<svg version="1.1" id="Layer_1" xmlns="http://www.w3.org/2000/svg" xmlns:xlink="http://www.w3.org/1999/xlink" x="0px" y="0px"
	 viewBox="0 0 576 360" style="enable-background:new 0 0 576 360;" xml:space="preserve">
<style type="text/css">
	.st0{fill:#0A2240;}
</style>
<g>
	<polygon class="st0" points="257.19,181.46 76.76,261.08 237.87,206.01 	"/>
	<path class="st0" d="M413.64,105.29c-27.21,4.6-42.53,9.38-67.59,20.95c-31.9,1.54-50.09,4.48-80.81,13.2
		c-26.26,7.46-40.85,13.17-65.16,25.58c8.84,0.18,13.89,0.87,22.5,2.9c8.17,1.93,12.72,3.51,20.34,7.04
		c2.01-10.29,24.64-24.2,38.5-28.97c18.73-6.44,27.28-8.29,48.23-12.1c-11.67,6.14-18.03,10.13-28.7,17.87
		c-11.58,8.4-17.84,13.63-27.97,23.73l3.67,5.07c26.92-21.78,44.5-32.05,76.77-44.59c37.68-14.64,61.38-19.17,101.8-19.52
		c-15.37,11.87-24.53,18.05-41.4,27.67c-16,9.13-25.03,13.67-42.11,20.56c2.55-4.65,5.44-8.68,7.77-14.48l-53.4,21.61
		c-19.56,7.92-30.77,11.94-50.45,19.58c0,0-13.11,23.66-22.77,36.76c15.95-7.13,24.84-11.42,40.42-19.34
		c15.66-7.96,24.38-12.69,39.62-21.44c-14.07,15.52-20.74,22.82-39.04,36.91c-17.38,13.38-31.9,21.06-48.59,29.58
		c-7.78,4.43-8.01,6.93-8.01,6.93c12.53-5.24,22.18-9.86,34.63-16.35c29.88-15.56,43.99-25.7,68.72-44.84
		c38.46-8.45,60.09-17.39,93.36-38.45c28.45-18.01,43.36-30.93,65.29-56.48C466.24,99.62,446.56,99.73,413.64,105.29z
		 M253.74,151.76c-8.42,5.2-10.54,7.71-16.19,13.78c-2.86-1.29-4.56-1.89-7.59-2.7c-3.8-1.01-6.03-1.33-9.95-1.57
		c8.94-4.74,14.14-7.19,23.56-10.89c15.55-6.1,26.42-9.48,41.17-11.85C272.64,142.09,263.4,145.79,253.74,151.76z M452.34,136.45
		c-15.43,11.34-24.6,17.2-41.38,26.42c-20.04,11.01-31.92,16.41-53.45,24.12c2.93-3.51,5.12-6.29,7.18-9.22
		c20.45-7.7,28.43-11.57,47.65-21.97c16.88-9.14,26.1-14.93,41.79-25.99L452.34,136.45z"/>
	<path class="st0" d="M349.66,207.75c-3.62,0-6.47,2.94-6.47,6.45v0.03c0,3.51,2.82,6.42,6.43,6.42c3.62,0,6.47-2.94,6.47-6.45
		v-0.04C356.09,210.66,353.28,207.75,349.66,207.75z M355.34,214.2c0,3.15-2.46,5.74-5.72,5.74c-3.24,0-5.68-2.55-5.68-5.7v-0.03
		c0-3.16,2.46-5.74,5.72-5.74c3.24,0,5.69,2.55,5.69,5.7V214.2z"/>
	<path class="st0" d="M352.72,212.86v-0.03c0-0.61-0.2-1.12-0.57-1.5c-0.48-0.48-1.19-0.75-2.12-0.75h-3.05v6.86h1.52v-2.21h1.16
		h0.04l1.46,2.21h1.76l-1.67-2.46C352.12,214.67,352.72,213.97,352.72,212.86z M351.19,212.95c0,0.57-0.41,0.98-1.18,0.98h-1.52
		v-2.01h1.48c0.75,0,1.21,0.34,1.21,1V212.95z"/>
</g>
</svg>
