<?xml version="1.0" encoding="UTF-8"?>
<!-- Generator: Adobe Illustrator 23.0.1, SVG Export Plug-In . SVG Version: 6.00 Build 0)  -->
<svg xmlns="http://www.w3.org/2000/svg" xmlns:xlink="http://www.w3.org/1999/xlink" id="Layer_1" x="0px" y="0px" viewBox="0 0 576 360" style="enable-background:new 0 0 576 360;" xml:space="preserve">
<style type="text/css">
	.st0{fill:#FFCD00;stroke:#FFCD00;stroke-width:2;stroke-linejoin:bevel;stroke-miterlimit:3.8637;}
	.st1{fill:#0A2240;}
	.st2{fill-rule:evenodd;clip-rule:evenodd;fill:#0A2240;}
	.st3{fill:#FFCD00;}
	.st4{fill-rule:evenodd;clip-rule:evenodd;fill:#FFCD00;}
</style>
<g>
	<path class="st0" d="M324.158,109.145l-6.5,20c0,0,8.5-0.5,34-10.5c25.5-10,50-26,56.5-30.5c6.5-4.5,17.5-14.5,17.5-14.5l-1-15   c0,0-4.5,4.5-20,12.5c-15.5,8-33,20-33,20l-23.5,11.5L324.158,109.145L324.158,109.145z"></path>
	<path class="st0" d="M181.658,98.895c0,0,11.75-6.5,14.5-7.5c2.75-1,19.25-8,21.75-8c2.5,0,17-6.25,21-6.25c4,0,11-4,15-3   c4,1,0.5,3.75,0.5,3.75s-14,5-17,6c-3,1-16.5,8-16.5,8l-9.25,8.5l-6.25,5.25c0,0-6-2.5-10-2.5   C191.408,103.145,181.658,98.895,181.658,98.895L181.658,98.895z"></path>
	<polygon class="st1" points="223.535,118.607 204.418,142.9 45,197.395 223.535,118.607  "></polygon>
	<path class="st2" d="M186.738,98.641c3.88,0.23,6.09,0.55,9.846,1.55c3.004,0.8,4.678,1.392,7.513,2.669   c5.588-6.008,7.684-8.491,16.02-13.638c9.561-5.904,18.702-9.568,30.675-13.077c-14.6,2.337-25.349,5.682-40.738,11.722   C200.73,91.526,195.588,93.948,186.738,98.641L186.738,98.641z M329.896,114.953c-2.036,2.906-4.199,5.654-7.1,9.125   c21.305-7.624,33.052-12.97,52.885-23.865c16.604-9.122,25.681-14.916,40.944-26.139l1.767-6.58   c-15.523,10.942-24.645,16.68-41.35,25.719C358.029,103.502,350.127,107.335,329.896,114.953L329.896,114.953z M336.815,102.014   c16.904-6.82,25.836-11.312,41.669-20.343c16.692-9.521,25.756-15.635,40.966-27.379c-39.998,0.347-63.444,4.828-100.73,19.312   c-31.934,12.405-49.328,22.572-75.962,44.12l-3.631-5.021c10.024-9.994,16.22-15.167,27.677-23.479   c10.562-7.662,16.852-11.61,28.402-17.682c-20.723,3.77-29.192,5.601-47.72,11.975c-13.716,4.718-36.105,18.484-38.096,28.668   c-7.538-3.485-12.04-5.054-20.122-6.961c-8.518-2.01-13.509-2.685-22.26-2.867c24.061-12.284,38.491-17.934,64.479-25.316   c30.397-8.634,48.401-11.543,79.964-13.064c24.793-11.444,39.951-16.179,66.877-20.729c32.575-5.505,52.052-5.611,84.704-0.587   c-21.694,25.284-36.45,38.068-64.599,55.885c-32.923,20.84-54.323,29.684-92.381,38.049c-24.468,18.93-38.428,28.963-67.992,44.363   c-12.322,6.419-21.868,10.991-34.269,16.173c0,0,0.219-2.48,7.921-6.86c16.511-8.431,30.883-16.029,48.075-29.27   c18.104-13.943,24.704-21.159,38.626-36.52c-15.079,8.652-23.707,13.337-39.205,21.212c-15.414,7.833-24.211,12.073-39.995,19.133   c9.563-12.963,22.531-36.376,22.531-36.376c19.467-7.555,30.559-11.539,49.915-19.372l52.842-21.387   C342.201,93.43,339.342,97.416,336.815,102.014L336.815,102.014z"></path>
	<g>
		<polygon class="st3" points="129.311,189.5 133.087,311.318 97.048,321.595 93.051,192.637 67.868,199.818 66.993,171.595     153.399,146.955 154.274,175.179 129.09,182.36 116.546,185.937   "></polygon>
		<polygon class="st1" points="129.311,189.5 128.312,189.531 132.063,310.57 98.008,320.281 94.011,191.323 68.827,198.504     68.016,172.343 152.439,148.269 153.25,174.431 128.816,181.398 112.863,185.947 129.043,190.463 129.311,189.5 128.312,189.531     129.311,189.5 129.58,188.537 120.229,185.927 129.364,183.322 155.298,175.927 154.359,145.642 65.969,170.847 66.908,201.132     92.092,193.95 96.088,322.908 134.11,312.066 130.288,188.734 129.58,188.537   "></polygon>
		<polygon class="st3" points="254.89,251.334 241.973,260.267 254.513,258.463 280.763,255.323 279.508,279.071 222.961,286.561     229.658,156.395 259.908,151.145   "></polygon>
		<polygon class="st1" points="254.89,251.334 254.321,250.511 241.404,259.445 242.115,261.257 254.643,259.454 279.702,256.457     278.553,278.189 224.021,285.411 230.616,157.244 258.847,152.344 253.891,251.284 254.89,251.334 254.321,250.511     254.89,251.334 255.888,251.384 260.907,151.195 259.737,150.16 229.487,155.41 228.659,156.344 221.962,286.509 223.092,287.552     279.64,280.062 280.507,279.124 281.761,255.375 280.644,254.33 254.394,257.47 254.371,257.473 246.037,258.672 255.458,252.156     255.888,251.384   "></polygon>
		<polygon class="st3" points="325.679,177.083 314.319,170.816 326.618,170.077 353.99,168.464 357.118,145.126 299.892,148.562     282.472,278.54 341.85,274.975 344.978,251.636 315.378,253.413 319.734,220.919 345.207,219.389 348.19,197.128 322.717,198.657       "></polygon>
		<polygon class="st1" points="325.679,177.083 326.162,176.207 317.824,171.607 326.678,171.075 354.049,169.462 354.981,168.597     358.109,145.258 357.058,144.127 299.832,147.563 298.901,148.429 281.481,278.407 282.532,279.538 341.91,275.973     342.841,275.108 345.969,251.769 344.918,250.638 316.531,252.342 320.615,221.867 345.267,220.387 346.198,219.522     349.182,197.261 348.13,196.129 323.874,197.586 326.669,177.219 326.162,176.207 325.679,177.083 324.688,176.947     321.727,198.521 322.777,199.655 347.038,198.199 344.325,218.44 319.674,219.92 318.742,220.786 314.387,253.28 315.438,254.412     343.825,252.707 340.968,274.026 283.624,277.469 300.774,149.51 355.966,146.197 353.108,167.514 326.559,169.079     314.259,169.818 313.836,171.691 325.196,177.958 325.679,177.083 324.688,176.947   "></polygon>
		<path class="st3" d="M498.572,155.169c-24.56-3.041-39.693,0.774-46.186,21.623l-24.321,78.096    c-6.493,20.849,5.23,27.989,29.789,31.03c24.559,3.041,39.693-0.774,46.186-21.623l24.321-78.096    C534.854,165.349,523.131,158.209,498.572,155.169z M497.476,184.026l-23.33,74.916c-1.485,4.771-3.991,5.745-9.469,5.067    c-5.477-0.678-7.212-2.177-5.727-6.948l23.071-74.084l-9.784-8.299l19.507,2.415C497.222,177.77,498.961,179.255,497.476,184.026z    "></path>
		<path class="st1" d="M498.572,155.169l0.123-0.992c-4.791-0.593-9.237-0.929-13.35-0.929c-8.544,0-15.684,1.449-21.387,5.129    c-5.707,3.679-9.869,9.564-12.526,18.118L427.11,254.59c-1.211,3.89-1.812,7.345-1.813,10.434    c-0.002,3.441,0.756,6.435,2.246,8.984c2.238,3.832,6.059,6.59,11.14,8.614c5.089,2.027,11.479,3.349,19.048,4.288    c4.791,0.593,9.237,0.929,13.35,0.929c8.544,0,15.683-1.449,21.387-5.129c5.707-3.679,9.869-9.564,12.526-18.118l24.321-78.096    c1.211-3.89,1.812-7.345,1.812-10.434c0.002-3.441-0.756-6.435-2.246-8.984c-2.238-3.832-6.059-6.59-11.14-8.614    c-5.089-2.027-11.479-3.349-19.048-4.288L498.572,155.169l-0.123,0.992c9.969,1.229,17.749,3.158,22.905,6.294    c2.581,1.567,4.507,3.415,5.801,5.631c1.292,2.217,1.971,4.822,1.973,7.976c0,2.827-0.555,6.091-1.722,9.839l-24.321,78.096    c-2.576,8.253-6.456,13.64-11.701,17.032c-5.248,3.39-11.971,4.81-20.303,4.81c-4.004,0-8.372-0.328-13.104-0.914    c-9.97-1.229-17.749-3.158-22.905-6.294c-2.581-1.567-4.507-3.416-5.801-5.631c-1.292-2.217-1.971-4.822-1.973-7.976    c-0.001-2.827,0.555-6.091,1.722-9.839l24.321-78.096c2.576-8.253,6.456-13.64,11.701-17.032c5.248-3.39,11.971-4.81,20.303-4.81    c4.004,0,8.372,0.328,13.104,0.914L498.572,155.169z M497.476,184.026l-0.955-0.297l-23.33,74.916    c-0.286,0.92-0.605,1.662-0.957,2.249c-0.533,0.88-1.108,1.409-1.852,1.77c-0.744,0.358-1.707,0.539-2.98,0.539    c-0.76,0-1.626-0.065-2.603-0.186c-2.061-0.249-3.507-0.641-4.295-1.15c-0.398-0.254-0.637-0.511-0.802-0.816    c-0.162-0.306-0.259-0.686-0.261-1.223c-0.001-0.625,0.144-1.449,0.463-2.469l23.071-74.084l-0.308-1.06l-7.23-6.133l16.183,2.004    c2.062,0.249,3.51,0.64,4.299,1.147c0.398,0.253,0.638,0.51,0.802,0.813c0.162,0.304,0.259,0.683,0.26,1.219    c0.001,0.623-0.144,1.446-0.462,2.465L497.476,184.026l0.955,0.297c0.354-1.14,0.551-2.139,0.552-3.059    c0.001-0.784-0.152-1.52-0.497-2.163c-0.257-0.482-0.618-0.9-1.048-1.242c-0.648-0.514-1.438-0.869-2.359-1.142    c-0.923-0.273-1.986-0.464-3.211-0.616l-19.507-2.415l-0.77,1.755l9.279,7.871l-22.874,73.452    c-0.354,1.141-0.552,2.142-0.553,3.064c-0.001,0.784,0.151,1.521,0.496,2.165c0.257,0.483,0.617,0.901,1.046,1.244    c0.647,0.516,1.437,0.872,2.358,1.147c0.923,0.274,1.986,0.466,3.211,0.618c1.032,0.128,1.976,0.201,2.848,0.201    c0.971,0,1.857-0.09,2.675-0.308c1.225-0.321,2.291-0.961,3.116-1.921c0.829-0.958,1.426-2.193,1.907-3.734l23.33-74.916    L497.476,184.026z"></path>
		<path class="st4" d="M411.216,148.474l-38.031-0.142l-27.244,127.476l38.032,0.142c27.291,0.102,37.16-5.676,46.116-47.581    L436.9,196.5C445.856,154.595,438.508,148.576,411.216,148.474z M410.607,182.657l-12.418,58.104    c-2.032,9.508-4.042,12.32-10.381,12.296l-7.747-0.029l16.157-75.884l-10.603-6.916l12.16,0.047l7.719,0.029    C411.833,170.327,412.639,173.149,410.607,182.657z"></path>
		<path class="st1" d="M411.216,148.474l0.004-1l-38.031-0.142l-0.982,0.791l-27.244,127.476l0.974,1.209l38.032,0.142    c0.233,0.001,0.465,0.001,0.696,0.001c6.729-0.001,12.433-0.375,17.385-1.622c3.712-0.935,7.002-2.37,9.927-4.503    c4.392-3.201,7.921-7.942,10.962-14.765c3.043-6.828,5.622-15.761,8.128-27.483l6.811-31.869    c2.395-11.212,3.638-19.887,3.639-26.649c-0.001-4.647-0.587-8.401-1.839-11.444c-0.938-2.281-2.26-4.155-3.954-5.643    c-2.544-2.237-5.874-3.591-9.94-4.398c-4.071-0.807-8.905-1.078-14.564-1.1L411.216,148.474l-0.004,1    c4.976,0.018,9.264,0.236,12.864,0.824c2.701,0.44,5.011,1.088,6.944,1.996c2.899,1.37,4.955,3.28,6.366,6.105    c1.405,2.826,2.133,6.62,2.132,11.662c0.002,6.517-1.213,15.09-3.595,26.231l-6.811,31.869    c-2.213,10.355-4.479,18.474-7.029,24.798c-1.912,4.744-3.982,8.474-6.295,11.399c-3.475,4.383-7.47,6.984-12.507,8.552    c-5.035,1.562-11.128,2.045-18.615,2.043c-0.228,0-0.458,0-0.688-0.001l-36.8-0.138l26.817-125.478l37.219,0.139L411.216,148.474z     M410.607,182.657l-0.978-0.209l-12.418,58.104c-0.501,2.344-0.998,4.259-1.545,5.788c-0.41,1.147-0.847,2.076-1.321,2.812    c-0.718,1.106-1.49,1.782-2.491,2.236c-1.002,0.452-2.283,0.669-3.967,0.668l-0.077,0h0.002l-6.517-0.024l15.901-74.68    l-0.432-1.046l-7.766-5.066l8.773,0.034l7.719,0.029c1.04,0.003,1.894,0.089,2.561,0.252c0.501,0.122,0.894,0.286,1.202,0.481    c0.459,0.297,0.754,0.648,0.986,1.204c0.228,0.554,0.36,1.33,0.359,2.355c0.002,1.65-0.341,3.919-0.969,6.853L410.607,182.657    l0.978,0.209c0.638-2.995,1.011-5.356,1.013-7.271c-0.001-1.056-0.114-1.984-0.394-2.807c-0.209-0.616-0.518-1.172-0.932-1.638    c-0.621-0.703-1.459-1.173-2.42-1.451c-0.966-0.28-2.07-0.391-3.354-0.396l-7.719-0.029l-12.16-0.047l-0.55,1.838l10.029,6.541    l-16.014,75.213l0.974,1.208l7.747,0.029h0.002l0.081,0c1.642-0.001,3.065-0.182,4.324-0.653c0.943-0.352,1.785-0.873,2.509-1.566    c1.09-1.042,1.909-2.437,2.603-4.216c0.693-1.782,1.269-3.963,1.844-6.652l12.418-58.104L410.607,182.657z"></path>
		<path class="st3" d="M179.868,165.954c-24.91,6.168-38.53,15.096-38.53,36.242v79.211c0,21.147,13.62,23.33,38.53,17.162    c24.91-6.168,38.53-15.096,38.53-36.242v-79.211C218.398,161.969,204.778,159.786,179.868,165.954z M187.574,268.346    c0,4.839-2.151,6.626-7.706,8.001c-5.555,1.375-7.706,0.653-7.706-4.185v-75.141l-12.08-3.931l19.786-4.899    c5.555-1.375,7.706-0.668,7.706,4.171V268.346z"></path>
		<path class="st1" d="M179.868,165.954l-0.24-0.971c-12.519,3.104-22.292,6.9-29.021,12.719c-3.361,2.909-5.945,6.334-7.672,10.385    c-1.728,4.051-2.598,8.716-2.598,14.109v79.211c0,3.728,0.413,6.914,1.253,9.616c1.251,4.05,3.516,7.019,6.675,8.889    c3.156,1.874,7.126,2.668,11.828,2.669c5.604-0.002,12.281-1.128,20.015-3.042c12.519-3.104,22.292-6.9,29.021-12.719    c3.361-2.909,5.945-6.334,7.672-10.385c1.728-4.051,2.598-8.716,2.597-14.109v-79.211c0-3.728-0.413-6.914-1.253-9.616    c-1.251-4.05-3.516-7.019-6.674-8.889c-3.156-1.874-7.126-2.668-11.828-2.669c-5.604,0.002-12.282,1.128-20.015,3.042    L179.868,165.954l0.24,0.971c7.648-1.895,14.199-2.985,19.534-2.983c2.987,0,5.588,0.34,7.791,1.049    c3.306,1.071,5.717,2.916,7.392,5.816c1.67,2.903,2.574,6.935,2.572,12.31v79.211c0,5.181-0.833,9.562-2.437,13.325    c-2.409,5.639-6.553,9.941-12.465,13.456c-5.908,3.51-13.577,6.192-22.868,8.491c-7.648,1.895-14.199,2.985-19.534,2.983    c-2.987,0-5.588-0.34-7.792-1.049c-3.306-1.071-5.717-2.915-7.392-5.816c-1.67-2.903-2.574-6.935-2.572-12.31v-79.211    c0-5.181,0.833-9.562,2.437-13.325c2.409-5.639,6.554-9.941,12.466-13.456c5.908-3.51,13.577-6.192,22.868-8.491L179.868,165.954z     M187.574,268.346h-1c0,1.137-0.128,2.049-0.372,2.783c-0.374,1.099-0.962,1.837-1.997,2.518    c-1.035,0.673-2.544,1.228-4.577,1.729c-1.559,0.388-2.815,0.591-3.742,0.589c-0.574,0-1.014-0.076-1.335-0.2    c-0.242-0.094-0.421-0.209-0.577-0.359c-0.231-0.225-0.43-0.552-0.579-1.085c-0.148-0.529-0.233-1.25-0.232-2.159v-75.141    l-0.691-0.951l-8.756-2.85l16.393-4.059c1.566-0.389,2.826-0.594,3.754-0.592c0.571,0,1.01,0.076,1.329,0.199    c0.241,0.093,0.419,0.208,0.574,0.357c0.229,0.223,0.428,0.55,0.577,1.081c0.148,0.528,0.232,1.247,0.231,2.155v75.985H187.574h1    v-75.985c0-0.913-0.071-1.714-0.237-2.428c-0.243-1.063-0.745-1.975-1.558-2.563c-0.811-0.589-1.812-0.801-2.916-0.801    c-1.206,0.002-2.589,0.244-4.235,0.651l-19.786,4.899l-0.069,1.922l11.389,3.706v74.415c0,0.914,0.071,1.716,0.238,2.432    c0.244,1.065,0.747,1.979,1.562,2.568c0.813,0.59,1.816,0.804,2.924,0.803c1.203-0.002,2.582-0.243,4.223-0.647    c2.837-0.708,4.936-1.522,6.401-2.963c0.726-0.719,1.261-1.593,1.591-2.596c0.333-1.004,0.473-2.13,0.474-3.413H187.574z"></path>
	</g>
	<g>
		<path class="st1" d="M498.128,297.666v-0.035c0-3.512,2.852-6.452,6.47-6.452s6.435,2.905,6.435,6.416v0.036    c0,3.511-2.852,6.451-6.471,6.451C500.943,304.082,498.128,301.178,498.128,297.666z M510.284,297.631v-0.036    c0-3.155-2.443-5.704-5.686-5.704c-3.261,0-5.721,2.585-5.721,5.74v0.035c0,3.155,2.441,5.704,5.685,5.704    C507.824,303.37,510.284,300.785,510.284,297.631z M501.924,294.012h3.048c0.927,0,1.64,0.268,2.12,0.749    c0.374,0.374,0.57,0.891,0.57,1.498v0.035c0,1.106-0.605,1.801-1.479,2.122l1.675,2.46h-1.763l-1.461-2.21h-0.036h-1.158v2.21    h-1.515V294.012z M504.955,297.363c0.766,0,1.176-0.409,1.176-0.98v-0.036c0-0.659-0.463-0.997-1.212-0.997h-1.479v2.013H504.955z    "></path>
	</g>
</g>
</svg>
