<?xml version="1.0" encoding="UTF-8" standalone="no"?>
<svg
   xmlns:dc="http://purl.org/dc/elements/1.1/"
   xmlns:cc="http://creativecommons.org/ns#"
   xmlns:rdf="http://www.w3.org/1999/02/22-rdf-syntax-ns#"
   xmlns:svg="http://www.w3.org/2000/svg"
   xmlns="http://www.w3.org/2000/svg"
   viewBox="0 0 257.33334 257.33334"
   height="257.33334"
   width="257.33334"
   xml:space="preserve"
   id="svg2"
   version="1.1"><metadata
     id="metadata8"><rdf:RDF><cc:Work
         rdf:about=""><dc:format>image/svg+xml</dc:format><dc:type
           rdf:resource="http://purl.org/dc/dcmitype/StillImage" /></cc:Work></rdf:RDF></metadata><defs
     id="defs6" /><g
     transform="matrix(1.3333333,0,0,-1.3333333,0,257.33333)"
     id="g10"><g
       transform="scale(0.1)"
       id="g12"><path
         id="path14"
         style="fill:#ffffff;fill-opacity:1;fill-rule:evenodd;stroke:none"
         d="M 0,1927.56 H 1927.56 V 0 H 0 v 1927.56" /><path
         id="path16"
         style="fill:#fcd213;fill-opacity:1;fill-rule:evenodd;stroke:none"
         d="m 110.332,708.59 c -65.8437,83.066 1.012,264.387 149.918,405.2 148.57,141.13 323.141,188.07 389.324,105.01 65.844,-82.73 -1.015,-264.054 -149.922,-405.198 -59.765,-56.727 -123.582,-97.918 -183.011,-121.895 -31.063,-6.078 -54.7,-0.336 -79.012,19.586 -106.699,97.246 89.816,352.517 91.168,354.547 0,0 -257.297,-270.133 -140.129,-388.652 4.73,-3.711 9.793,-6.75 14.855,-9.454 -39.164,1.012 -71.582,14.184 -93.191,40.856" /><path
         id="path18"
         style="fill:#15366f;fill-opacity:1;fill-rule:evenodd;stroke:none"
         d="m 342.305,703.012 v 303.058 l 7.09,0.68 v 90.15 h 11.14 v 58.41 33.77 h 31.067 v -7.76 h 19.582 v 5.06 h 22.625 v -5.06 h 19.586 v 7.76 h 31.062 v -33.77 -58.41 h 11.145 v -90.15 l 7.089,-0.68 V 816.523 c -1.015,-0.972 -2.015,-1.949 -3.039,-2.921 -51.246,-48.637 -105.468,-85.856 -157.347,-110.59" /><path
         id="path20"
         style="fill:#ffffff;fill-opacity:1;fill-rule:evenodd;stroke:none"
         d="m 392.273,1094.2 c 0,6.75 5.407,12.16 12.161,12.16 6.75,0 12.156,-5.41 12.156,-12.16 V 988.176 H 392.273 V 1094.2" /><path
         id="path22"
         style="fill:#ffffff;fill-opacity:1;fill-rule:evenodd;stroke:none"
         d="m 452.719,1094.2 c 0,6.75 -5.403,12.16 -12.156,12.16 -6.754,0 -12.157,-5.41 -12.157,-12.16 V 988.176 h 24.649 l -0.336,106.024" /><path
         id="path24"
         style="fill:#15366f;fill-opacity:1;fill-rule:evenodd;stroke:none"
         d="m 672.195,919.969 c 0,26.336 0.676,48.285 1.012,58.41 47.613,1.016 53.691,-3.375 58.078,-12.492 4.055,-6.754 10.469,-20.594 13.508,-46.598 l 4.391,3.379 c -1.016,23.973 2.699,60.105 3.711,65.844 -12.493,-4.055 -32.754,-4.391 -87.118,-4.391 h -31.402 c -46.258,0 -70.23,1.688 -80.699,4.391 -1.348,-17.559 -4.051,-54.364 -7.766,-68.883 l 4.055,-2.363 c 4.051,13.843 9.113,28.363 17.558,43.218 7.086,13.848 11.141,17.895 60.438,17.895 0,-10.805 0,-37.477 0,-65.504 v -68.883 c 0,-55.035 -0.672,-77.996 -1.348,-91.504 -0.679,-7.765 -4.39,-10.133 -13.843,-11.144 -12.497,-1.352 -18.239,-1.688 -25.325,-2.028 l 1.012,-4.726 c 14.856,0 34.777,1.351 56.387,1.351 28.027,0 56.39,-1.351 66.519,-1.351 l 1.352,4.726 c -9.453,0.34 -16.207,1.016 -28.699,2.028 -7.77,1.011 -9.118,3.715 -9.797,11.82 -1.012,9.789 -2.024,37.477 -2.024,89.141 v 77.664" /><path
         id="path26"
         style="fill:#15366f;fill-opacity:1;fill-rule:evenodd;stroke:none"
         d="m 869.727,990.875 c -77.325,0 -118.856,-59.766 -118.856,-133.039 0,-80.359 44.906,-128.645 117.504,-128.645 71.586,0 117.508,46.934 117.508,135.735 0,71.246 -41.871,125.949 -115.481,125.949 z m -1.012,-5.738 c 20.598,0 36.801,-8.782 47.945,-28.028 11.141,-21.273 18.235,-57.402 18.235,-97.586 0,-41.531 -6.418,-77.66 -16.883,-96.57 -11.481,-20.933 -27.688,-27.348 -46.258,-27.348 -19.922,0 -36.805,9.118 -48.285,27.688 -11.821,18.906 -20.602,58.414 -20.602,101.297 0,41.531 7.43,74.621 18.235,93.195 11.144,18.91 29.378,27.352 47.273,27.352 h 0.34" /><path
         id="path28"
         style="fill:#15366f;fill-opacity:1;fill-rule:evenodd;stroke:none"
         d="m 1160.79,804.824 c -5.41,-20.258 -12.83,-35.453 -22.96,-47.609 -9.8,-12.492 -22.96,-15.195 -61.46,-15.195 -18.91,0 -21.94,1.691 -22.62,6.078 -1.01,10.804 -1.01,48.621 -1.01,92.519 v 41.531 c 0,40.18 1.35,70.235 2.02,87.118 0.34,6.75 3.72,9.453 11.48,9.789 l 15.87,1.691 -1.35,4.727 c -17.22,-0.336 -31.74,-1.352 -48.96,-1.352 -15.87,0 -39.167,1.352 -46.933,1.352 l -0.34,-4.727 12.836,-1.012 c 7.427,-0.679 9.787,-2.367 9.787,-8.441 0.68,-9.121 1.35,-23.977 1.35,-65.508 v -64.832 c 0,-41.531 -1.01,-75.637 -2.7,-89.816 -0.67,-7.09 -3.03,-9.453 -11.476,-10.129 l -16.211,-1.692 v -4.726 c 7.77,0 35.457,1.351 53.347,1.351 32.08,0 60.45,0 82.39,-0.675 21.61,-0.336 37.49,-0.676 43.56,-1.352 2.7,22.961 5.4,55.043 8.11,70.234 l -4.73,0.676" /><path
         id="path30"
         style="fill:#15366f;fill-opacity:1;fill-rule:evenodd;stroke:none"
         d="m 1171.93,980.746 10.8,-1.012 c 9.12,-0.339 11.15,-2.703 11.82,-9.457 0.68,-11.82 1.02,-36.464 1.02,-71.922 v -68.542 c 0,-28.704 -0.34,-58.754 -1.69,-74.961 -0.68,-10.129 -2.7,-13.168 -10.13,-13.844 l -16.55,-1.692 -0.34,-4.726 c 12.16,0 35.46,1.351 56.06,1.351 h 39.84 c 44.23,-0.336 71.58,-1.011 86.1,-2.027 1.69,10.469 8.78,58.418 9.12,66.859 l -4.39,1.012 c -4.39,-16.547 -13.84,-34.777 -24.98,-45.246 -11.15,-11.144 -23.31,-14.184 -57.07,-14.184 -27.35,0 -29.72,2.028 -30.05,9.458 -1.01,14.519 -1.69,49.636 -1.69,75.972 v 34.778 c 4.73,1.015 13.5,1.015 28.36,1.015 37.82,0 43.22,-16.211 45.93,-40.18 l 4.38,-0.339 c -1.34,20.933 -1.01,54.699 1.02,77.66 h -4.06 c -3.37,-24.313 -12.82,-30.051 -46.59,-30.051 -16.88,0 -24.31,0 -29.04,0.336 v 39.168 c 0,27.016 1.35,48.625 2.02,61.121 0.34,4.387 1.7,6.074 6.42,6.074 h 18.91 c 37.14,0 46.94,-4.051 53.69,-18.234 5.74,-12.153 9.11,-24.645 10.46,-35.113 l 4.73,1.011 c -0.67,15.532 0,50.313 1.35,62.805 -6.41,-2.027 -27.35,-3.715 -54.02,-3.715 h -61.12 c -19.24,0.676 -40.86,1.352 -50.31,1.352 v -4.727" /><path
         id="path32"
         style="fill:#15366f;fill-opacity:1;fill-rule:evenodd;stroke:none"
         d="m 1390.05,837.914 c 0,-42.207 -2.02,-77.66 -2.69,-86.101 -0.34,-7.09 -3.38,-10.129 -13.51,-11.481 l -12.49,-1.016 v -4.726 c 7.76,0 26.34,1.351 44.23,1.351 10.46,0 19.59,-0.336 27.69,-0.675 9.45,-0.336 20.93,-0.676 33.76,-0.676 27.02,0 49.64,4.055 66.86,12.156 47.95,22.625 64.15,71.586 64.15,121.219 0,47.273 -17.22,84.418 -46.93,102.648 -15.87,9.793 -40.18,15.871 -82.05,15.871 -25.66,0 -42.55,-0.336 -60.78,-1.011 -19.25,-1.016 -34.1,-1.352 -42.21,-1.352 l -0.67,-4.726 15.53,-0.34 c 5.74,0 8.1,-2.024 8.1,-8.778 0.68,-9.793 1.01,-29.714 1.01,-69.558 z m 44.24,58.414 c 0,51.664 1.35,69.559 2.03,75.301 0.67,5.738 3.04,8.777 28.7,8.777 28.7,0 48.62,-8.441 62.12,-24.648 13.18,-15.867 22.63,-45.586 22.63,-89.817 0,-47.609 -10.13,-80.023 -22.29,-97.586 -11.14,-16.203 -30.05,-28.023 -67.53,-28.023 -17.89,0 -23.29,3.039 -23.97,8.781 -1.02,9.114 -1.69,25.321 -1.69,87.114 v 60.101" /><path
         id="path34"
         style="fill:#15366f;fill-opacity:1;fill-rule:evenodd;stroke:none"
         d="m 1726.36,990.875 c -77.32,0 -118.85,-59.766 -118.85,-133.039 0,-80.359 44.91,-128.645 117.51,-128.645 71.58,0 117.5,46.934 117.5,135.735 0,71.246 -41.87,125.949 -115.48,125.949 z m -1.01,-5.738 c 20.6,0 36.81,-8.782 47.95,-28.028 11.15,-21.273 18.23,-57.402 18.23,-97.586 0,-41.531 -6.41,-77.66 -16.88,-96.57 -11.48,-20.933 -27.69,-27.348 -46.26,-27.348 -19.92,0 -36.8,9.118 -48.28,27.688 -11.82,18.906 -20.6,58.414 -20.6,101.297 0,41.531 7.43,74.621 18.23,93.195 11.15,18.91 29.38,27.352 47.28,27.352 h 0.33" /><path
         id="path36"
         style="fill:#15366f;fill-opacity:1;fill-rule:evenodd;stroke:none"
         d="m 720.48,1109.39 h 17.559 v 8.45 h -44.91 v -8.45 h 17.898 v -66.51 h 9.453 v 66.51" /><path
         id="path38"
         style="fill:#15366f;fill-opacity:1;fill-rule:evenodd;stroke:none"
         d="m 763.023,1087.79 v 30.05 h -9.453 v -74.96 h 9.453 V 1079 h 35.457 v -36.12 h 9.454 v 74.96 h -9.454 v -30.05 h -35.457" /><path
         id="path40"
         style="fill:#15366f;fill-opacity:1;fill-rule:evenodd;stroke:none"
         d="m 830.559,1042.88 h 40.179 v 8.77 h -31.066 v 28.03 h 30.055 v 8.78 h -30.055 v 20.93 h 31.066 v 8.45 h -40.179 v -74.96" /><path
         id="path42"
         style="fill:#15366f;fill-opacity:1;fill-rule:evenodd;stroke:none"
         d="m 927.465,1117.84 v -47.28 c 0,-16.54 10.133,-29.04 27.351,-29.04 17.219,0 27.688,12.5 27.688,29.04 v 47.28 h -9.457 v -44.24 c 0,-12.15 -3.711,-23.64 -18.231,-23.64 -14.183,0 -17.898,11.49 -17.898,23.64 v 44.24 h -9.453" /><path
         id="path44"
         style="fill:#15366f;fill-opacity:1;fill-rule:evenodd;stroke:none"
         d="m 1003.44,1042.88 h 9.11 v 56.05 l 56.4,-59.09 v 78 h -9.46 v -55.38 l -56.05,59.09 v -78.67" /><path
         id="path46"
         style="fill:#15366f;fill-opacity:1;fill-rule:evenodd;stroke:none"
         d="m 1100.35,1117.84 h -9.46 v -74.96 h 9.46 v 74.96" /><path
         id="path48"
         style="fill:#15366f;fill-opacity:1;fill-rule:evenodd;stroke:none"
         d="m 1125.67,1117.84 h -10.47 l 32.76,-78.68 32.41,78.68 h -10.13 l -22.28,-55.38 -22.29,55.38" /><path
         id="path50"
         style="fill:#15366f;fill-opacity:1;fill-rule:evenodd;stroke:none"
         d="m 1195.9,1042.88 h 40.19 v 8.77 h -31.07 v 28.03 h 30.05 v 8.78 h -30.05 v 20.93 h 31.07 v 8.45 h -40.19 v -74.96" /><path
         id="path52"
         style="fill:#15366f;fill-opacity:1;fill-rule:evenodd;stroke:none"
         d="m 1279.31,1075.63 c 10.8,1.35 18.23,10.13 18.23,20.93 0,7.09 -3.72,14.19 -9.79,17.9 -6.08,3.38 -13.17,3.38 -19.93,3.38 h -11.48 v -74.96 h 9.46 v 31.73 h 4.05 l 21.95,-31.73 h 11.14 z m -13.51,34.1 h 2.36 c 9.46,0 20.6,-1.69 20.6,-13.5 0,-12.16 -10.47,-13.85 -19.92,-13.85 h -3.04 v 27.35" /><path
         id="path54"
         style="fill:#15366f;fill-opacity:1;fill-rule:evenodd;stroke:none"
         d="m 1360.01,1108.04 c -4.06,7.43 -10.81,11.48 -19.25,11.48 -11.14,0 -21.95,-7.43 -21.95,-19.24 0,-10.47 7.77,-15.53 16.21,-19.25 l 5.4,-2.03 c 6.42,-2.7 12.83,-6.07 12.83,-14.18 0,-8.1 -5.74,-14.86 -13.84,-14.86 -8.11,0 -14.52,6.08 -14.52,14.52 l -9.46,-2.02 c 1.7,-12.16 11.15,-20.94 23.3,-20.94 13.17,0 23.98,9.46 23.98,23.3 0,12.5 -8.11,18.23 -18.91,22.63 l -5.07,2.02 c -4.72,1.69 -10.46,4.73 -10.46,10.81 0,6.41 6.41,10.47 12.49,10.47 5.74,0 9.12,-2.37 11.82,-7.1 l 7.43,4.39" /><path
         id="path56"
         style="fill:#15366f;fill-opacity:1;fill-rule:evenodd;stroke:none"
         d="m 1390.73,1117.84 h -9.45 v -74.96 h 9.45 v 74.96" /><path
         id="path58"
         style="fill:#15366f;fill-opacity:1;fill-rule:evenodd;stroke:none"
         d="m 1433.95,1109.39 h 17.56 v 8.45 h -44.91 v -8.45 h 17.9 v -66.51 h 9.45 v 66.51" /><path
         id="path60"
         style="fill:#15366f;fill-opacity:1;fill-rule:evenodd;stroke:none"
         d="m 1484.6,1075.63 v -32.75 h 9.46 v 32.75 l 24.31,42.21 h -10.81 l -18.23,-32.08 -18.23,32.08 h -10.81 l 24.31,-42.21" /><path
         id="path62"
         style="fill:#15366f;fill-opacity:1;fill-rule:evenodd;stroke:none"
         d="m 1605.48,1119.52 c -21.61,0 -39.16,-17.56 -39.16,-39.16 0,-22.29 17.55,-38.84 39.16,-38.84 21.61,0 39.17,16.55 39.17,38.84 0,21.6 -17.56,39.16 -39.17,39.16 z m 0,-69.56 c -16.2,0 -30.05,13.51 -30.05,30.4 0,16.54 12.5,30.39 30.05,30.39 17.56,0 30.06,-13.85 30.06,-30.39 0,-16.89 -13.85,-30.4 -30.06,-30.4" /><path
         id="path64"
         style="fill:#15366f;fill-opacity:1;fill-rule:evenodd;stroke:none"
         d="m 1699.02,1109.39 v 8.45 h -36.47 v -74.96 h 9.45 v 36.8 h 26 v 8.78 h -26 v 20.93 h 27.02" /></g></g></svg>