<?xml version="1.0" encoding="UTF-8" standalone="no"?>
<svg
   xmlns:dc="http://purl.org/dc/elements/1.1/"
   xmlns:cc="http://creativecommons.org/ns#"
   xmlns:rdf="http://www.w3.org/1999/02/22-rdf-syntax-ns#"
   xmlns:svg="http://www.w3.org/2000/svg"
   xmlns="http://www.w3.org/2000/svg"
   viewBox="0 0 257.33334 257.33334"
   height="257.33334"
   width="257.33334"
   xml:space="preserve"
   id="svg2"
   version="1.1"><metadata
     id="metadata8"><rdf:RDF><cc:Work
         rdf:about=""><dc:format>image/svg+xml</dc:format><dc:type
           rdf:resource="http://purl.org/dc/dcmitype/StillImage" /></cc:Work></rdf:RDF></metadata><defs
     id="defs6" /><g
     transform="matrix(1.3333333,0,0,-1.3333333,0,257.33333)"
     id="g10"><g
       transform="scale(0.1)"
       id="g12"><path
         id="path14"
         style="fill:#ffffff;fill-opacity:1;fill-rule:evenodd;stroke:none"
         d="M 0,1927.56 H 1927.56 V 0 H 0 v 1927.56" /><path
         id="path16"
         style="fill:#15366f;fill-opacity:1;fill-rule:evenodd;stroke:none"
         d="m 997.188,1316.74 c 0,18.28 14.622,32.89 32.902,32.89 18.27,0 32.89,-14.61 32.89,-32.89 V 1029.8 h -65.792 v 286.94" /><path
         id="path18"
         style="fill:#15366f;fill-opacity:1;fill-rule:evenodd;stroke:none"
         d="m 1160.77,1316.74 c 0,18.28 -14.63,32.89 -32.91,32.89 -18.27,0 -32.89,-14.61 -32.89,-32.89 V 1029.8 h 66.71 l -0.91,286.94" /><path
         id="path20"
         style="fill:#15366f;fill-opacity:1;fill-rule:evenodd;stroke:none"
         d="m 234.141,273.148 c -178.1957,224.801 2.746,715.528 405.742,1096.592 402.077,381.98 874.527,509.01 1053.647,284.2 109.65,-137.99 83.15,-378.32 -48.44,-631.45 0,-0.91 -11.88,-21.94 -11.88,-22.845 C 1552.8,852.516 1438.57,701.734 1296.01,565.57 v 512.66 l -19.19,1.83 v 243.99 h -30.16 v 158.09 91.39 h -84.07 v -21.03 h -53 v 13.71 h -61.23 v -13.71 h -52.997 v 21.03 h -84.074 v -91.39 -158.09 h -30.16 v -243.99 l -19.188,-1.83 V 257.613 c -23.757,-10.965 -46.601,-21.015 -69.453,-30.16 -84.066,-16.445 -148.039,-0.91 -213.836,53.004 -288.765,263.184 243.078,954.043 246.739,959.523 0,0 -696.336,-731.062 -379.243,-1051.82 12.797,-10.051 26.5,-18.273 40.211,-25.586 -106.007,2.739 -193.734,38.383 -252.218,110.574" /></g></g></svg>