<?xml version="1.0" encoding="UTF-8" standalone="no"?>
<svg
   xmlns:dc="http://purl.org/dc/elements/1.1/"
   xmlns:cc="http://creativecommons.org/ns#"
   xmlns:rdf="http://www.w3.org/1999/02/22-rdf-syntax-ns#"
   xmlns:svg="http://www.w3.org/2000/svg"
   xmlns="http://www.w3.org/2000/svg"
   viewBox="0 0 257.33334 257.33334"
   height="257.33334"
   width="257.33334"
   xml:space="preserve"
   id="svg2"
   version="1.1"><metadata
     id="metadata8"><rdf:RDF><cc:Work
         rdf:about=""><dc:format>image/svg+xml</dc:format><dc:type
           rdf:resource="http://purl.org/dc/dcmitype/StillImage" /></cc:Work></rdf:RDF></metadata><defs
     id="defs6" /><g
     transform="matrix(1.3333333,0,0,-1.3333333,0,257.33333)"
     id="g10"><g
       transform="scale(0.1)"
       id="g12"><path
         id="path14"
         style="fill:#ffffff;fill-opacity:1;fill-rule:evenodd;stroke:none"
         d="M 0,1927.56 H 1927.56 V 0 H 0 v 1927.56" /><path
         id="path16"
         style="fill:#fcd213;fill-opacity:1;fill-rule:evenodd;stroke:none"
         d="m 234.09,273.148 c -178.1994,224.801 2.742,715.528 405.742,1096.592 402.078,381.98 874.528,509 1053.638,284.2 178.2,-223.89 -2.74,-714.608 -405.74,-1096.592 C 1125.98,403.828 953.273,292.34 792.441,227.457 c -84.074,-16.449 -148.043,-0.914 -213.839,53 -288.77,263.184 243.078,954.043 246.734,959.523 0,0 -696.336,-731.066 -379.238,-1051.82 12.793,-10.047 26.5,-18.273 40.207,-25.586 -106.004,2.742 -193.731,38.383 -252.215,110.574" /><path
         id="path18"
         style="fill:#15366f;fill-opacity:1;fill-rule:evenodd;stroke:none"
         d="m 861.887,258.047 v 820.183 l 19.191,1.83 v 243.99 h 30.16 v 158.09 91.39 h 84.071 v -21.02 h 53.001 v 13.7 h 61.23 v -13.7 h 53 v 21.02 h 84.07 v -91.39 -158.09 h 30.16 v -243.99 l 19.19,-1.83 V 565.25 c -2.75,-2.633 -5.46,-5.281 -8.23,-7.902 C 1149.04,425.711 1002.3,324.992 861.887,258.047" /><path
         id="path20"
         style="fill:#ffffff;fill-opacity:1;fill-rule:evenodd;stroke:none"
         d="m 997.137,1316.74 c 0,18.28 14.623,32.9 32.903,32.9 18.27,0 32.89,-14.62 32.89,-32.9 V 1029.8 h -65.793 v 286.94" /><path
         id="path22"
         style="fill:#ffffff;fill-opacity:1;fill-rule:evenodd;stroke:none"
         d="m 1160.71,1316.74 c 0,18.28 -14.62,32.9 -32.9,32.9 -18.27,0 -32.9,-14.62 -32.9,-32.9 V 1029.8 h 66.72 l -0.92,286.94" /></g></g></svg>